<?xml version="1.0" standalone="no"?>
<!DOCTYPE svg PUBLIC "-//W3C//DTD SVG 20010904//EN"
 "http://www.w3.org/TR/2001/REC-SVG-20010904/DTD/svg10.dtd">
<svg version="1.0" xmlns="http://www.w3.org/2000/svg"
 width="1280.000000pt" height="1280.000000pt" viewBox="0 0 1280.000000 1280.000000"
 preserveAspectRatio="xMidYMid meet">
<metadata>
Created by potrace 1.15, written by Peter Selinger 2001-2017
</metadata>
<g transform="translate(0.000000,1280.000000) scale(0.100000,-0.100000)"
fill="#000000" stroke="none">
<path d="M0 6400 l0 -6400 6400 0 6400 0 0 6400 0 6400 -6400 0 -6400 0 0
-6400z m5585 4760 l780 -1560 -780 -1560 c-429 -858 -782 -1560 -785 -1560 -3
0 -356 702 -785 1560 l-780 1560 780 1560 c429 858 782 1560 785 1560 3 0 356
-702 785 -1560z m3200 0 l780 -1560 -780 -1560 c-429 -858 -782 -1560 -785
-1560 -3 0 -356 702 -785 1560 l-780 1560 780 1560 c429 858 782 1560 785
1560 3 0 356 -702 785 -1560z m3199 -3 l778 -1562 -778 -1558 c-429 -856 -781
-1557 -784 -1557 -3 0 -356 702 -785 1560 l-780 1560 780 1560 c429 858 782
1560 785 1559 3 0 355 -703 784 -1562z m-9994 768 c216 -429 423 -838 460
-910 37 -71 213 -420 390 -774 l324 -644 -780 -1558 c-428 -858 -781 -1559
-784 -1559 -3 0 -355 701 -784 1558 l-778 1557 778 1557 c428 856 779 1556
780 1555 1 -1 178 -353 394 -782z m395 -7165 l780 -1560 -780 -1560 c-429
-858 -782 -1560 -785 -1559 -3 0 -355 703 -784 1562 l-778 1562 778 1558 c429
856 781 1557 784 1557 3 0 356 -702 785 -1560z m3200 0 l780 -1560 -780 -1560
c-429 -858 -782 -1560 -785 -1560 -3 0 -356 702 -785 1560 l-780 1560 780
1560 c429 858 782 1560 785 1560 3 0 356 -702 785 -1560z m3200 0 l780 -1560
-780 -1560 c-429 -858 -782 -1560 -785 -1560 -3 0 -356 702 -785 1560 l-780
1560 780 1560 c429 858 782 1560 785 1560 3 0 356 -702 785 -1560z m3199 3
l778 -1558 -778 -1562 c-429 -859 -781 -1562 -784 -1562 -3 -1 -356 701 -785
1559 l-780 1560 780 1560 c429 858 782 1560 785 1560 3 0 355 -701 784 -1557z"/>
</g>
</svg>
