<?xml version="1.0" standalone="no"?>
<!DOCTYPE svg PUBLIC "-//W3C//DTD SVG 20010904//EN"
 "http://www.w3.org/TR/2001/REC-SVG-20010904/DTD/svg10.dtd">
<svg version="1.0" xmlns="http://www.w3.org/2000/svg"
 width="1280.000000pt" height="640.000000pt" viewBox="0 0 1280.000000 640.000000"
 preserveAspectRatio="xMidYMid meet">
<metadata>
Created by potrace 1.15, written by Peter Selinger 2001-2017
</metadata>
<g transform="translate(0.000000,640.000000) scale(0.100000,-0.100000)"
fill="#FFFFFF" stroke="none">
<path d="M5795 4974 c-27 -2 -153 -11 -280 -19 -1188 -79 -2299 -298 -3430
-676 -238 -80 -290 -105 -324 -155 -42 -60 -39 -111 12 -261 l46 -132 -147
-57 c-421 -162 -768 -317 -1223 -547 -334 -168 -403 -211 -431 -267 -33 -64
-20 -150 28 -201 40 -42 82 -55 374 -114 352 -71 536 -118 532 -135 -2 -7 -37
-94 -78 -193 -131 -310 -224 -567 -224 -615 0 -67 43 -137 102 -168 15 -8 53
-14 84 -14 50 0 70 7 168 59 539 287 1155 555 1691 737 181 62 226 87 255 144
29 56 24 117 -19 250 l-37 115 65 22 c338 112 835 235 1301 322 1781 332 3701
238 5405 -265 121 -36 228 -67 237 -70 14 -4 12 -18 -23 -122 -56 -165 -53
-239 13 -298 34 -32 54 -40 231 -100 537 -183 1158 -455 1717 -754 64 -34 84
-40 135 -40 70 0 108 19 151 75 47 62 45 116 -11 270 -51 140 -171 441 -229
570 -19 44 -32 83 -28 86 12 11 373 93 626 144 260 51 303 78 313 194 7 70 -8
119 -45 153 -32 30 -204 124 -497 270 -358 180 -683 324 -1035 460 -113 44
-209 83 -213 87 -5 5 13 70 38 145 50 148 53 182 15 244 -32 51 -84 76 -335
161 -1123 375 -2221 594 -3405 677 -211 15 -1387 28 -1525 18z"/>
</g>
</svg>
