<?xml version="1.0" standalone="no"?>
<!DOCTYPE svg PUBLIC "-//W3C//DTD SVG 20010904//EN"
 "http://www.w3.org/TR/2001/REC-SVG-20010904/DTD/svg10.dtd">
<svg version="1.0" xmlns="http://www.w3.org/2000/svg"
 width="1280.000000pt" height="640.000000pt" viewBox="0 0 1280.000000 640.000000"
 preserveAspectRatio="xMidYMid meet">
<metadata>
Created by potrace 1.15, written by Peter Selinger 2001-2017
</metadata>
<g transform="translate(0.000000,640.000000) scale(0.100000,-0.100000)"
fill="#FFFFFF" stroke="none">
<path d="M3120 4319 c-208 -12 -439 -37 -497 -54 -116 -34 -129 -71 -84 -244
50 -195 46 -203 -84 -172 -133 32 -240 41 -485 41 -186 0 -241 -4 -319 -20
-52 -11 -109 -20 -128 -20 -74 0 -208 -41 -623 -189 -160 -58 -167 -59 -425
-106 -341 -61 -440 -94 -465 -155 -30 -72 22 -116 152 -130 46 -4 113 -16 148
-25 149 -38 346 -98 381 -115 45 -23 58 -50 32 -68 -61 -44 -204 -122 -298
-164 -118 -52 -188 -68 -303 -68 -79 0 -112 -11 -112 -38 0 -31 117 -259 154
-300 45 -49 107 -77 250 -109 351 -79 435 -74 831 48 479 147 672 176 858 128
157 -39 223 -62 288 -100 166 -96 398 -207 478 -228 117 -32 251 -27 333 11
158 74 234 221 257 498 12 142 23 187 52 224 29 37 81 35 180 -9 43 -19 181
-67 306 -106 126 -39 305 -100 399 -134 221 -82 323 -115 514 -164 481 -125
866 -175 1340 -174 320 0 440 13 769 84 323 69 405 90 583 153 419 147 1155
286 1248 236 30 -16 41 -44 56 -145 16 -111 33 -166 81 -260 50 -101 109 -179
200 -266 124 -118 162 -123 335 -44 134 61 209 85 268 85 137 0 232 43 380
171 147 127 223 183 312 229 204 107 353 84 549 -83 122 -105 152 -127 279
-206 173 -108 299 -141 535 -141 97 0 152 5 215 21 47 11 139 31 205 44 66 13
146 33 177 45 117 44 159 146 69 169 -20 6 -88 15 -151 22 -132 13 -274 46
-359 85 -60 26 -100 59 -88 70 3 4 44 10 89 15 207 21 503 174 618 321 149
188 238 568 133 568 -13 0 -58 -20 -99 -45 -166 -101 -269 -130 -436 -122
-157 7 -251 41 -448 162 -161 100 -525 270 -705 330 -40 14 -103 39 -141 56
-93 42 -114 48 -219 59 -208 22 -528 -31 -697 -116 -26 -13 -52 -24 -58 -24
-6 0 -22 24 -35 53 -29 67 -67 113 -114 136 -50 26 -352 107 -486 131 -60 11
-173 28 -251 39 -77 11 -201 34 -275 52 -117 29 -150 33 -264 32 -183 -1 -392
-37 -740 -128 -309 -81 -415 -106 -587 -140 -101 -20 -208 -42 -238 -50 -138
-35 -300 -48 -605 -48 -474 0 -886 44 -1305 138 -85 19 -243 51 -350 70 -107
19 -296 57 -419 85 -437 98 -733 123 -1161 99z m433 -54 c40 -8 193 -35 340
-60 277 -46 520 -96 1022 -209 452 -102 668 -133 1080 -156 234 -12 423 -12
580 0 177 14 509 74 775 140 253 62 678 153 800 170 118 17 416 40 518 40 51
0 126 -5 165 -11 140 -20 401 -70 418 -80 29 -15 38 -65 49 -294 13 -261 37
-576 50 -660 13 -79 32 -103 117 -145 142 -70 121 -75 -111 -30 -207 41 -330
51 -591 52 -214 0 -225 -1 -393 -36 -96 -20 -231 -45 -300 -57 -92 -15 -204
-46 -402 -111 -501 -163 -648 -201 -1000 -254 -390 -59 -795 -40 -1326 62
-329 63 -585 138 -1249 368 -357 123 -544 160 -825 160 -212 1 -267 -7 -437
-65 -48 -16 -89 -27 -92 -24 -2 3 -8 153 -12 333 -8 353 -16 421 -73 582 -59
166 -56 207 18 234 59 22 474 63 654 65 99 1 178 -4 225 -14z m5856 -644 c1
-226 -2 -302 -10 -294 -16 16 -24 330 -14 508 13 219 23 126 24 -214z m-7489
219 c50 -50 66 -207 76 -731 l7 -355 -84 -13 c-46 -7 -134 -19 -196 -26 -90
-10 -133 -22 -225 -59 -62 -25 -144 -54 -183 -65 -38 -11 -117 -35 -175 -55
-58 -19 -132 -40 -165 -46 -33 -7 -78 -16 -100 -20 -116 -26 -484 18 -581 68
-56 29 -123 90 -156 141 -41 65 -38 71 32 71 79 0 139 25 349 145 197 112 302
153 413 162 86 7 119 23 97 50 -20 23 -60 40 -114 48 -105 15 -241 56 -343
104 -59 27 -138 59 -177 72 -100 31 -145 56 -145 79 0 22 2 22 135 50 145 30
332 85 478 141 132 51 225 79 264 79 12 0 78 18 146 39 195 62 518 139 590
140 24 1 44 -6 57 -19z m175 -226 c45 -817 45 -824 96 -824 35 0 39 32 38 297
0 236 -5 350 -25 534 -4 37 -3 84 1 105 l7 39 14 -38 c18 -52 31 -201 44 -492
5 -132 13 -304 17 -382 l6 -143 -81 0 c-143 0 -166 23 -137 141 16 63 17 100
11 278 -14 470 -16 636 -7 615 5 -12 12 -71 16 -130z m469 123 c22 -22 23 -31
29 -237 8 -252 33 -570 48 -620 30 -94 60 -119 291 -240 84 -45 163 -91 175
-102 54 -51 50 -144 -7 -173 -63 -33 -149 -10 -308 82 -51 29 -119 66 -150 81
-32 16 -78 42 -103 59 -24 17 -72 45 -106 62 -35 17 -63 34 -63 38 0 3 8 15
18 26 26 29 27 148 3 397 -28 295 -37 460 -24 460 17 0 30 -100 68 -540 25
-293 38 -340 90 -340 11 0 30 6 40 14 19 14 19 16 3 63 -22 63 -32 145 -63
518 -34 422 -37 435 -73 435 -9 0 -24 5 -32 10 -26 17 8 30 78 30 52 0 67 -4
86 -23z m7198 -79 c-2 -16 -8 -28 -13 -28 -11 0 -12 84 -2 94 11 10 20 -32 15
-66z m183 -376 c8 -173 20 -368 25 -435 13 -165 12 -270 -2 -304 -11 -28 -11
-27 -24 27 -21 89 -33 290 -40 686 -7 354 -2 457 17 374 4 -19 15 -176 24
-348z m104 133 c7 -104 16 -255 21 -335 12 -185 12 -523 0 -494 -9 23 -24 284
-40 714 -12 320 -12 340 -1 320 5 -8 14 -100 20 -205z m1161 166 c0 -35 -9
-61 -21 -61 -10 0 -12 73 -2 83 14 15 23 6 23 -22z m-1024 -361 c2 -151 2
-270 -1 -265 -6 13 -35 538 -34 601 l1 49 15 -55 c12 -41 16 -124 19 -330z
m1273 185 c1 -33 10 -113 21 -178 19 -120 18 -147 -6 -147 -28 0 -36 45 -41
235 -6 193 2 272 18 190 4 -22 8 -67 8 -100z m-1139 8 c0 -38 7 -131 15 -208
15 -144 19 -222 10 -213 -6 6 -30 254 -39 396 -4 58 -2 92 4 92 6 0 10 -30 10
-67z m1240 -35 c23 -51 25 -68 6 -68 -15 0 -36 49 -36 86 0 35 8 29 30 -18z
m-355 -116 c-20 -20 -29 95 -10 133 8 15 11 3 13 -54 2 -40 0 -76 -3 -79z
m122 31 c-2 -16 -4 -3 -4 27 0 30 2 43 4 28 2 -16 2 -40 0 -55z m900 -34 c80
-6 156 -14 168 -19 12 -5 36 -36 55 -74 45 -88 38 -104 -73 -155 -45 -21 -104
-57 -130 -79 -54 -47 -85 -52 -134 -22 -37 22 -55 54 -94 162 -15 43 -41 94
-58 115 -30 36 -38 62 -24 76 9 10 124 8 290 -4z m-997 -216 c0 -16 -5 -35
-10 -43 -16 -25 -30 7 -18 41 13 37 28 37 28 2z m109 -147 c7 -8 17 -44 23
-79 21 -129 -13 -207 -79 -175 -37 18 -40 44 -9 73 23 21 26 32 26 87 0 98 12
126 39 94z m145 -132 c3 -9 11 -59 17 -112 10 -95 33 -172 50 -172 13 0 29 45
29 79 0 41 20 91 36 91 12 0 23 -29 39 -106 7 -37 41 -72 54 -58 5 5 11 22 13
39 5 44 34 45 74 1 30 -32 38 -36 85 -36 78 0 160 -53 130 -83 -27 -27 -220
-34 -362 -12 -109 16 -175 39 -189 66 -11 20 -14 238 -4 288 7 34 18 40 28 15z
m-8286 -67 c6 -54 -35 -69 -80 -29 -24 20 -23 24 10 45 39 24 66 18 70 -16z
m122 -81 c0 -60 -20 -99 -42 -78 -18 18 -16 84 5 116 25 37 37 24 37 -38z
m6054 8 c20 -20 12 -34 -20 -34 -28 0 -44 28 -23 41 19 12 25 11 43 -7z m-125
-50 c25 -31 27 -54 6 -54 -22 0 -55 37 -55 60 0 28 25 25 49 -6z m592 -57 c-1
-12 -15 -9 -19 4 -3 6 1 10 8 8 6 -3 11 -8 11 -12z m-161 -11 c0 -2 3 -12 6
-21 5 -13 2 -16 -17 -13 -31 4 -39 38 -10 38 12 0 21 -2 21 -4z m-91 -25 c21
-13 4 -50 -27 -57 -45 -9 -57 -20 -63 -55 -3 -19 -9 -40 -13 -47 -11 -18 -26
-15 -26 6 0 10 -7 27 -15 38 -23 30 -18 51 18 78 54 41 98 54 126 37z"/>
<path d="M9094 3983 c-12 -60 -8 -557 5 -668 17 -143 21 -159 35 -145 14 14
14 730 0 799 -12 57 -31 64 -40 14z"/>
<path d="M9226 3972 c-3 -26 -9 -211 -12 -412 -7 -376 -2 -453 32 -481 11 -9
16 -6 25 17 8 22 8 77 0 214 -6 102 -13 301 -17 443 -6 249 -15 318 -28 219z"/>
<path d="M8984 3925 c-11 -50 -12 -498 0 -619 6 -66 11 -85 19 -76 14 13 12
601 -2 686 l-8 49 -9 -40z"/>
<path d="M1846 3598 c8 -291 27 -431 51 -372 4 10 7 123 7 249 -2 241 -11 306
-46 313 -16 3 -17 -12 -12 -190z"/>
<path d="M1723 3239 c3 -67 9 -124 12 -128 4 -3 13 3 22 14 27 36 2 235 -30
235 -7 0 -8 -39 -4 -121z"/>
<path d="M1474 3284 c-9 -37 2 -254 14 -284 8 -19 11 14 11 137 1 152 -9 211
-25 147z"/>
<path d="M1869 3158 c-13 -24 -4 -193 12 -237 l11 -26 13 25 c9 16 14 58 15
117 0 125 -21 177 -51 121z"/>
</g>
</svg>
